<?xml version="1.0" encoding="UTF-8" standalone="no"?>
<!DOCTYPE svg PUBLIC "-//W3C//DTD SVG 1.1//EN" "http://www.w3.org/Graphics/SVG/1.1/DTD/svg11.dtd">
<!-- Generated by graphviz version 2.38.0 (20140413.2041)
 -->
<!-- Title: R Pages: 1 -->
<svg width="615pt" height="690pt" viewBox="0.00 0.00 615.00 689.73" xmlns="http://www.w3.org/2000/svg" xmlns:xlink="http://www.w3.org/1999/xlink">
<g id="graph0" class="graph" transform="scale(1 1) rotate(0) translate(4 685.732)">
<title>R</title>
<polygon fill="white" stroke="none" points="-4,4 -4,-685.732 611,-685.732 611,4 -4,4"/>
<!-- ROOT -->
<g id="node1" class="node"><title>ROOT</title>
<ellipse fill="none" stroke="black" cx="310" cy="-663.732" rx="34.394" ry="18"/>
<text text-anchor="middle" x="310" y="-660.032" font-family="Times,serif" font-size="14.00">ROOT</text>
</g>
<!-- Channel -->
<g id="node12" class="node"><title>Channel</title>
<ellipse fill="none" stroke="black" cx="310" cy="-568.436" rx="40.0939" ry="40.0939"/>
<text text-anchor="middle" x="310" y="-564.736" font-family="Times,serif" font-size="14.00">Channel</text>
</g>
<!-- ROOT&#45;&gt;Channel -->
<g id="edge5" class="edge"><title>ROOT-&gt;Channel</title>
<path fill="none" stroke="black" d="M310,-645.62C310,-637.968 310,-628.514 310,-618.9"/>
<polygon fill="black" stroke="black" points="313.5,-618.892 310,-608.892 306.5,-618.892 313.5,-618.892"/>
</g>
<!-- Message -->
<g id="node2" class="node"><title>Message</title>
<ellipse fill="none" stroke="black" cx="107" cy="-129.246" rx="42.4939" ry="42.4939"/>
<text text-anchor="middle" x="107" y="-125.546" font-family="Times,serif" font-size="14.00">Message</text>
</g>
<!-- message_id -->
<g id="node3" class="node"><title>message_id</title>
<path fill="none" stroke="lightgrey" d="M78,-36C78,-36 12,-36 12,-36 6,-36 0,-30 0,-24 0,-24 0,-12 0,-12 0,-6 6,-0 12,-0 12,-0 78,-0 78,-0 84,-0 90,-6 90,-12 90,-12 90,-24 90,-24 90,-30 84,-36 78,-36"/>
<text text-anchor="middle" x="45" y="-14.3" font-family="Times,serif" font-size="14.00">"message-id"</text>
</g>
<!-- Message&#45;&gt;message_id -->
<g id="edge3" class="edge"><title>Message-&gt;message_id</title>
<path fill="none" stroke="black" d="M86.5271,-92.1722C77.7311,-76.6734 67.6521,-58.9138 59.6265,-44.7725"/>
<polygon fill="black" stroke="black" points="62.663,-43.0317 54.6832,-36.0622 56.5751,-46.4868 62.663,-43.0317"/>
<text text-anchor="middle" x="78.5" y="-57.8" font-family="Times,serif" font-size="14.00">id</text>
</g>
<!-- message_text -->
<g id="node4" class="node"><title>message_text</title>
<path fill="none" stroke="lightgrey" d="M219.5,-36C219.5,-36 120.5,-36 120.5,-36 114.5,-36 108.5,-30 108.5,-24 108.5,-24 108.5,-12 108.5,-12 108.5,-6 114.5,-0 120.5,-0 120.5,-0 219.5,-0 219.5,-0 225.5,-0 231.5,-6 231.5,-12 231.5,-12 231.5,-24 231.5,-24 231.5,-30 225.5,-36 219.5,-36"/>
<text text-anchor="middle" x="170" y="-14.3" font-family="Times,serif" font-size="14.00">"Message Content"</text>
</g>
<!-- Message&#45;&gt;message_text -->
<g id="edge4" class="edge"><title>Message-&gt;message_text</title>
<path fill="none" stroke="black" d="M127.803,-92.1722C136.741,-76.6734 146.983,-58.9138 155.138,-44.7725"/>
<polygon fill="black" stroke="black" points="158.197,-46.4735 160.161,-36.0622 152.133,-42.9765 158.197,-46.4735"/>
<text text-anchor="middle" x="160.5" y="-57.8" font-family="Times,serif" font-size="14.00">text</text>
</g>
<!-- Message&#45;&gt;Channel -->
<g id="edge14" class="edge"><title>Message-&gt;Channel</title>
<path fill="none" stroke="black" d="M101.6,-171.41C93.9433,-248.672 89.4866,-416.078 178,-510.139 199.957,-533.473 233.043,-547.807 260.597,-556.303"/>
<polygon fill="black" stroke="black" points="259.887,-559.742 270.467,-559.175 261.843,-553.02 259.887,-559.742"/>
<text text-anchor="middle" x="127.5" y="-336.216" font-family="Times,serif" font-size="14.00">channel</text>
</g>
<!-- MessageConnection -->
<g id="node5" class="node"><title>MessageConnection</title>
<ellipse fill="none" stroke="black" cx="231" cy="-421.278" rx="55.7232" ry="55.7232"/>
<text text-anchor="middle" x="231" y="-425.078" font-family="Times,serif" font-size="14.00">Message</text>
<text text-anchor="middle" x="231" y="-410.078" font-family="Times,serif" font-size="14.00">Connection</text>
</g>
<!-- MessageConnection_totalCount -->
<g id="node6" class="node"><title>MessageConnection_totalCount</title>
<path fill="none" stroke="lightgrey" d="M287,-286.454C287,-286.454 257,-286.454 257,-286.454 251,-286.454 245,-280.454 245,-274.454 245,-274.454 245,-262.454 245,-262.454 245,-256.454 251,-250.454 257,-250.454 257,-250.454 287,-250.454 287,-250.454 293,-250.454 299,-256.454 299,-262.454 299,-262.454 299,-274.454 299,-274.454 299,-280.454 293,-286.454 287,-286.454"/>
<text text-anchor="middle" x="272" y="-264.754" font-family="Times,serif" font-size="14.00">100</text>
</g>
<!-- MessageConnection&#45;&gt;MessageConnection_totalCount -->
<g id="edge8" class="edge"><title>MessageConnection-&gt;MessageConnection_totalCount</title>
<path fill="none" stroke="black" d="M245.455,-367.103C251.943,-343.236 259.319,-316.104 264.646,-296.508"/>
<polygon fill="black" stroke="black" points="268.057,-297.303 267.302,-286.735 261.302,-295.467 268.057,-297.303"/>
<text text-anchor="middle" x="283" y="-336.216" font-family="Times,serif" font-size="14.00">totalCount</text>
</g>
<!-- MessagePageInfo -->
<g id="node7" class="node"><title>MessagePageInfo</title>
<ellipse fill="none" stroke="black" cx="363" cy="-268.454" rx="45.9239" ry="45.9239"/>
<text text-anchor="middle" x="363" y="-272.254" font-family="Times,serif" font-size="14.00">Message</text>
<text text-anchor="middle" x="363" y="-257.254" font-family="Times,serif" font-size="14.00">PageInfo</text>
</g>
<!-- MessageConnection&#45;&gt;MessagePageInfo -->
<g id="edge9" class="edge"><title>MessageConnection-&gt;MessagePageInfo</title>
<path fill="none" stroke="black" d="M275.418,-386.795C289.291,-375.179 304.072,-361.511 316,-347.416 323.502,-338.552 330.569,-328.354 336.833,-318.317"/>
<polygon fill="black" stroke="black" points="339.939,-319.945 342.122,-309.577 333.951,-316.321 339.939,-319.945"/>
<text text-anchor="middle" x="351.5" y="-336.216" font-family="Times,serif" font-size="14.00">pageInfo</text>
</g>
<!-- MessageEdge -->
<g id="node10" class="node"><title>MessageEdge</title>
<ellipse fill="none" stroke="black" cx="181" cy="-268.454" rx="45.9239" ry="45.9239"/>
<text text-anchor="middle" x="181" y="-272.254" font-family="Times,serif" font-size="14.00">Message</text>
<text text-anchor="middle" x="181" y="-257.254" font-family="Times,serif" font-size="14.00">Edge</text>
</g>
<!-- MessageConnection&#45;&gt;MessageEdge -->
<g id="edge7" class="edge"><title>MessageConnection-&gt;MessageEdge:n</title>
<path fill="none" stroke="black" d="M199.193,-375.251C190.949,-360.158 183.775,-342.63 181.643,-324.878"/>
<polygon fill="black" stroke="black" points="185.107,-324.183 181,-314.416 178.12,-324.612 185.107,-324.183"/>
<text text-anchor="middle" x="202.5" y="-336.216" font-family="Times,serif" font-size="14.00">edges</text>
<text text-anchor="middle" x="177.5" y="-318.216" font-family="Times,serif" font-size="14.00">*</text>
</g>
<!-- MessagePageInfo_hasPrevPage -->
<g id="node8" class="node"><title>MessagePageInfo_hasPrevPage</title>
<path fill="none" stroke="lightgrey" d="M359,-147.246C359,-147.246 329,-147.246 329,-147.246 323,-147.246 317,-141.246 317,-135.246 317,-135.246 317,-123.246 317,-123.246 317,-117.246 323,-111.246 329,-111.246 329,-111.246 359,-111.246 359,-111.246 365,-111.246 371,-117.246 371,-123.246 371,-123.246 371,-135.246 371,-135.246 371,-141.246 365,-147.246 359,-147.246"/>
<text text-anchor="middle" x="344" y="-125.546" font-family="Times,serif" font-size="14.00">true</text>
</g>
<!-- MessagePageInfo&#45;&gt;MessagePageInfo_hasPrevPage -->
<g id="edge11" class="edge"><title>MessagePageInfo-&gt;MessagePageInfo_hasPrevPage</title>
<path fill="none" stroke="black" d="M349.074,-224.431C347.407,-217.816 345.959,-211.016 345,-204.493 342.729,-189.044 342.383,-171.593 342.649,-157.493"/>
<polygon fill="black" stroke="black" points="346.149,-157.553 342.95,-147.452 339.152,-157.343 346.149,-157.553"/>
<text text-anchor="middle" x="380" y="-193.293" font-family="Times,serif" font-size="14.00">hasPrevPage</text>
</g>
<!-- MessagePageInfo_hasNextPage -->
<g id="node9" class="node"><title>MessagePageInfo_hasNextPage</title>
<path fill="none" stroke="lightgrey" d="M452,-147.246C452,-147.246 422,-147.246 422,-147.246 416,-147.246 410,-141.246 410,-135.246 410,-135.246 410,-123.246 410,-123.246 410,-117.246 416,-111.246 422,-111.246 422,-111.246 452,-111.246 452,-111.246 458,-111.246 464,-117.246 464,-123.246 464,-123.246 464,-135.246 464,-135.246 464,-141.246 458,-147.246 452,-147.246"/>
<text text-anchor="middle" x="437" y="-125.546" font-family="Times,serif" font-size="14.00">false</text>
</g>
<!-- MessagePageInfo&#45;&gt;MessagePageInfo_hasNextPage -->
<g id="edge10" class="edge"><title>MessagePageInfo-&gt;MessagePageInfo_hasNextPage</title>
<path fill="none" stroke="black" d="M394.3,-234.616C401.882,-225.397 409.404,-215.004 415,-204.493 422.829,-189.787 428.233,-171.92 431.726,-157.399"/>
<polygon fill="black" stroke="black" points="435.171,-158.033 433.939,-147.51 428.34,-156.505 435.171,-158.033"/>
<text text-anchor="middle" x="457.5" y="-193.293" font-family="Times,serif" font-size="14.00">hasNextPage</text>
</g>
<!-- MessageEdge&#45;&gt;Message -->
<g id="edge12" class="edge"><title>MessageEdge-&gt;Message</title>
<path fill="none" stroke="black" d="M159.596,-227.768C150.88,-211.608 140.751,-192.826 131.722,-176.085"/>
<polygon fill="black" stroke="black" points="134.663,-174.164 126.835,-167.024 128.502,-177.487 134.663,-174.164"/>
<text text-anchor="middle" x="160.5" y="-193.293" font-family="Times,serif" font-size="14.00">node</text>
</g>
<!-- MessageEdge_cursor -->
<g id="node11" class="node"><title>MessageEdge_cursor</title>
<path fill="none" stroke="lightgrey" d="M268.5,-147.246C268.5,-147.246 179.5,-147.246 179.5,-147.246 173.5,-147.246 167.5,-141.246 167.5,-135.246 167.5,-135.246 167.5,-123.246 167.5,-123.246 167.5,-117.246 173.5,-111.246 179.5,-111.246 179.5,-111.246 268.5,-111.246 268.5,-111.246 274.5,-111.246 280.5,-117.246 280.5,-123.246 280.5,-123.246 280.5,-135.246 280.5,-135.246 280.5,-141.246 274.5,-147.246 268.5,-147.246"/>
<text text-anchor="middle" x="224" y="-125.546" font-family="Times,serif" font-size="14.00">some-hash-cursor</text>
</g>
<!-- MessageEdge&#45;&gt;MessageEdge_cursor -->
<g id="edge13" class="edge"><title>MessageEdge-&gt;MessageEdge_cursor</title>
<path fill="none" stroke="black" d="M194.487,-224.417C201.419,-202.3 209.647,-176.046 215.652,-156.884"/>
<polygon fill="black" stroke="black" points="219.003,-157.894 218.654,-147.305 212.323,-155.801 219.003,-157.894"/>
<text text-anchor="middle" x="223" y="-193.293" font-family="Times,serif" font-size="14.00">cursor</text>
</g>
<!-- Channel&#45;&gt;MessageConnection -->
<g id="edge6" class="edge"><title>Channel-&gt;MessageConnection</title>
<path fill="none" stroke="black" d="M270.429,-560.726C241.59,-553.542 204.463,-539.008 186,-510.139 178.123,-497.822 180.493,-483.956 187.156,-470.943"/>
<polygon fill="black" stroke="black" points="190.308,-472.489 192.382,-462.099 184.281,-468.928 190.308,-472.489"/>
<text text-anchor="middle" x="300" y="-498.939" font-family="Times,serif" font-size="14.00">messages(first=5, before=null, query="")</text>
</g>
<!-- channel_id -->
<g id="node13" class="node"><title>channel_id</title>
<path fill="none" stroke="lightgrey" d="M467,-439.278C467,-439.278 405,-439.278 405,-439.278 399,-439.278 393,-433.278 393,-427.278 393,-427.278 393,-415.278 393,-415.278 393,-409.278 399,-403.278 405,-403.278 405,-403.278 467,-403.278 467,-403.278 473,-403.278 479,-409.278 479,-415.278 479,-415.278 479,-427.278 479,-427.278 479,-433.278 473,-439.278 467,-439.278"/>
<text text-anchor="middle" x="436" y="-417.578" font-family="Times,serif" font-size="14.00">"channel-id"</text>
</g>
<!-- Channel&#45;&gt;channel_id -->
<g id="edge1" class="edge"><title>Channel-&gt;channel_id</title>
<path fill="none" stroke="black" d="M348.131,-555.201C370.47,-546.147 397.459,-531.616 414,-510.139 427.377,-492.771 432.709,-468.262 434.791,-449.541"/>
<polygon fill="black" stroke="black" points="438.28,-449.818 435.66,-439.552 431.306,-449.211 438.28,-449.818"/>
<text text-anchor="middle" x="428.5" y="-498.939" font-family="Times,serif" font-size="14.00">id</text>
</g>
<!-- channel_name -->
<g id="node14" class="node"><title>channel_name</title>
<path fill="none" stroke="lightgrey" d="M595,-439.278C595,-439.278 509,-439.278 509,-439.278 503,-439.278 497,-433.278 497,-427.278 497,-427.278 497,-415.278 497,-415.278 497,-409.278 503,-403.278 509,-403.278 509,-403.278 595,-403.278 595,-403.278 601,-403.278 607,-409.278 607,-415.278 607,-415.278 607,-427.278 607,-427.278 607,-433.278 601,-439.278 595,-439.278"/>
<text text-anchor="middle" x="552" y="-417.578" font-family="Times,serif" font-size="14.00">"Channel Name"</text>
</g>
<!-- Channel&#45;&gt;channel_name -->
<g id="edge2" class="edge"><title>Channel-&gt;channel_name</title>
<path fill="none" stroke="black" d="M347.181,-552.678C373.148,-541.919 408.335,-526.427 438,-510.139 461.339,-497.324 466.74,-493.168 488,-477.139 500.694,-467.568 514.14,-456.241 525.413,-446.372"/>
<polygon fill="black" stroke="black" points="528.023,-448.736 533.195,-439.489 523.386,-443.492 528.023,-448.736"/>
<text text-anchor="middle" x="478.5" y="-498.939" font-family="Times,serif" font-size="14.00">name</text>
</g>
</g>
</svg>