<?xml version="1.0" encoding="UTF-8" standalone="no"?>
<!DOCTYPE svg PUBLIC "-//W3C//DTD SVG 1.1//EN" "http://www.w3.org/Graphics/SVG/1.1/DTD/svg11.dtd">
<!-- Generated by graphviz version 2.38.0 (20140413.2041)
 -->
<!-- Title: R Pages: 1 -->
<svg width="587pt" height="358pt" viewBox="0.00 0.00 587.00 358.09" xmlns="http://www.w3.org/2000/svg" xmlns:xlink="http://www.w3.org/1999/xlink">
<g id="graph0" class="graph" transform="scale(1 1) rotate(0) translate(4 354.088)">
<title>R</title>
<polygon fill="white" stroke="none" points="-4,4 -4,-354.088 583,-354.088 583,4 -4,4"/>
<!-- Message -->
<g id="node1" class="node"><title>Message</title>
<ellipse fill="none" stroke="black" cx="181" cy="-234.841" rx="42.4939" ry="42.4939"/>
<text text-anchor="middle" x="181" y="-231.141" font-family="Times,serif" font-size="14.00">Message</text>
</g>
<!-- message_id -->
<g id="node2" class="node"><title>message_id</title>
<path fill="none" stroke="lightgrey" d="M78,-132.298C78,-132.298 12,-132.298 12,-132.298 6,-132.298 0,-126.298 0,-120.298 0,-120.298 0,-108.298 0,-108.298 0,-102.298 6,-96.2976 12,-96.2976 12,-96.2976 78,-96.2976 78,-96.2976 84,-96.2976 90,-102.298 90,-108.298 90,-108.298 90,-120.298 90,-120.298 90,-126.298 84,-132.298 78,-132.298"/>
<text text-anchor="middle" x="45" y="-110.598" font-family="Times,serif" font-size="14.00">"message-id"</text>
</g>
<!-- Message&#45;&gt;message_id -->
<g id="edge5" class="edge"><title>Message-&gt;message_id</title>
<path fill="none" stroke="black" d="M149.457,-206.347C126.115,-186.001 94.6364,-158.563 72.3548,-139.141"/>
<polygon fill="black" stroke="black" points="74.4321,-136.309 64.5941,-132.377 69.8326,-141.586 74.4321,-136.309"/>
<text text-anchor="middle" x="118.5" y="-163.395" font-family="Times,serif" font-size="14.00">id</text>
</g>
<!-- message_text -->
<g id="node3" class="node"><title>message_text</title>
<path fill="none" stroke="lightgrey" d="M219.5,-132.298C219.5,-132.298 120.5,-132.298 120.5,-132.298 114.5,-132.298 108.5,-126.298 108.5,-120.298 108.5,-120.298 108.5,-108.298 108.5,-108.298 108.5,-102.298 114.5,-96.2976 120.5,-96.2976 120.5,-96.2976 219.5,-96.2976 219.5,-96.2976 225.5,-96.2976 231.5,-102.298 231.5,-108.298 231.5,-108.298 231.5,-120.298 231.5,-120.298 231.5,-126.298 225.5,-132.298 219.5,-132.298"/>
<text text-anchor="middle" x="170" y="-110.598" font-family="Times,serif" font-size="14.00">"Message Content"</text>
</g>
<!-- Message&#45;&gt;message_text -->
<g id="edge6" class="edge"><title>Message-&gt;message_text</title>
<path fill="none" stroke="black" d="M173.305,-193.152C172.373,-186.956 171.556,-180.62 171,-174.595 170.041,-164.205 169.685,-152.748 169.604,-142.698"/>
<polygon fill="black" stroke="black" points="173.104,-142.463 169.609,-132.461 166.104,-142.459 173.104,-142.463"/>
<text text-anchor="middle" x="181.5" y="-163.395" font-family="Times,serif" font-size="14.00">text</text>
</g>
<!-- User -->
<g id="node4" class="node"><title>User</title>
<ellipse fill="none" stroke="black" cx="277" cy="-114.298" rx="27.0966" ry="27.0966"/>
<text text-anchor="middle" x="277" y="-110.598" font-family="Times,serif" font-size="14.00">User</text>
</g>
<!-- Message&#45;&gt;User -->
<g id="edge10" class="edge"><title>Message-&gt;User</title>
<path fill="none" stroke="black" d="M202.693,-198.366C210.995,-185.708 220.907,-171.615 231,-159.595 236.637,-152.882 243.179,-146.09 249.531,-139.909"/>
<polygon fill="black" stroke="black" points="251.992,-142.398 256.833,-132.974 247.171,-137.322 251.992,-142.398"/>
<text text-anchor="middle" x="248.5" y="-163.395" font-family="Times,serif" font-size="14.00">author</text>
</g>
<!-- Channel -->
<g id="node7" class="node"><title>Channel</title>
<ellipse fill="none" stroke="black" cx="333" cy="-234.841" rx="40.0939" ry="40.0939"/>
<text text-anchor="middle" x="333" y="-231.141" font-family="Times,serif" font-size="14.00">Channel</text>
</g>
<!-- Message&#45;&gt;Channel -->
<g id="edge9" class="edge"><title>Message-&gt;Channel</title>
<path fill="none" stroke="black" d="M220.935,-220.252C226.104,-218.848 231.374,-217.648 236.475,-216.841 255.351,-213.856 260.615,-213.755 279.475,-216.841 281.398,-217.156 283.345,-217.53 285.301,-217.953"/>
<polygon fill="black" stroke="black" points="284.528,-221.368 295.081,-220.419 286.24,-214.58 284.528,-221.368"/>
<text text-anchor="middle" x="257.975" y="-220.641" font-family="Times,serif" font-size="14.00">channel</text>
</g>
<!-- user_id -->
<g id="node5" class="node"><title>user_id</title>
<path fill="none" stroke="lightgrey" d="M250,-36C250,-36 208,-36 208,-36 202,-36 196,-30 196,-24 196,-24 196,-12 196,-12 196,-6 202,-0 208,-0 208,-0 250,-0 250,-0 256,-0 262,-6 262,-12 262,-12 262,-24 262,-24 262,-30 256,-36 250,-36"/>
<text text-anchor="middle" x="229" y="-14.3" font-family="Times,serif" font-size="14.00">"user-id"</text>
</g>
<!-- User&#45;&gt;user_id -->
<g id="edge1" class="edge"><title>User-&gt;user_id</title>
<path fill="none" stroke="black" d="M264.888,-89.5023C258.028,-76.0259 249.434,-59.1441 242.377,-45.2789"/>
<polygon fill="black" stroke="black" points="245.432,-43.5649 237.776,-36.2408 239.193,-46.7404 245.432,-43.5649"/>
<text text-anchor="middle" x="260.5" y="-57.8" font-family="Times,serif" font-size="14.00">id</text>
</g>
<!-- user_name -->
<g id="node6" class="node"><title>user_name</title>
<path fill="none" stroke="lightgrey" d="M359.5,-36C359.5,-36 292.5,-36 292.5,-36 286.5,-36 280.5,-30 280.5,-24 280.5,-24 280.5,-12 280.5,-12 280.5,-6 286.5,-0 292.5,-0 292.5,-0 359.5,-0 359.5,-0 365.5,-0 371.5,-6 371.5,-12 371.5,-12 371.5,-24 371.5,-24 371.5,-30 365.5,-36 359.5,-36"/>
<text text-anchor="middle" x="326" y="-14.3" font-family="Times,serif" font-size="14.00">"User Name"</text>
</g>
<!-- User&#45;&gt;user_name -->
<g id="edge2" class="edge"><title>User-&gt;user_name</title>
<path fill="none" stroke="black" d="M289.365,-89.5023C296.368,-76.0259 305.14,-59.1441 312.345,-45.2789"/>
<polygon fill="black" stroke="black" points="315.536,-46.7281 317.041,-36.2408 309.324,-43.5004 315.536,-46.7281"/>
<text text-anchor="middle" x="323.5" y="-57.8" font-family="Times,serif" font-size="14.00">name</text>
</g>
<!-- Channel&#45;&gt;Message -->
<g id="edge8" class="edge"><title>Channel-&gt;Message</title>
<path fill="none" stroke="black" d="M292.457,-234.841C274.361,-234.841 252.809,-234.841 233.5,-234.841"/>
<polygon fill="black" stroke="black" points="233.341,-231.342 223.34,-234.841 233.34,-238.342 233.341,-231.342"/>
<text text-anchor="middle" x="257.975" y="-241.641" font-family="Times,serif" font-size="14.00">messages</text>
</g>
<!-- Channel&#45;&gt;User -->
<g id="edge11" class="edge"><title>Channel-&gt;User</title>
<path fill="none" stroke="black" d="M300.553,-210.558C289.663,-200.815 278.814,-188.507 273,-174.595 269.957,-167.314 269.089,-159.09 269.369,-151.137"/>
<polygon fill="black" stroke="black" points="272.876,-151.22 270.31,-140.941 265.906,-150.576 272.876,-151.22"/>
<text text-anchor="middle" x="292" y="-163.395" font-family="Times,serif" font-size="14.00">creator</text>
</g>
<!-- Channel&#45;&gt;User -->
<g id="edge12" class="edge"><title>Channel-&gt;User</title>
<path fill="none" stroke="black" d="M324.506,-195.42C321.133,-183.579 316.677,-170.735 311,-159.595 308.236,-154.172 304.783,-148.745 301.145,-143.642"/>
<polygon fill="black" stroke="black" points="303.755,-141.29 294.937,-135.417 298.168,-145.507 303.755,-141.29"/>
<text text-anchor="middle" x="344" y="-163.395" font-family="Times,serif" font-size="14.00">members</text>
</g>
<!-- channel_id -->
<g id="node8" class="node"><title>channel_id</title>
<path fill="none" stroke="lightgrey" d="M439,-132.298C439,-132.298 377,-132.298 377,-132.298 371,-132.298 365,-126.298 365,-120.298 365,-120.298 365,-108.298 365,-108.298 365,-102.298 371,-96.2976 377,-96.2976 377,-96.2976 439,-96.2976 439,-96.2976 445,-96.2976 451,-102.298 451,-108.298 451,-108.298 451,-120.298 451,-120.298 451,-126.298 445,-132.298 439,-132.298"/>
<text text-anchor="middle" x="408" y="-110.598" font-family="Times,serif" font-size="14.00">"channel-id"</text>
</g>
<!-- Channel&#45;&gt;channel_id -->
<g id="edge3" class="edge"><title>Channel-&gt;channel_id</title>
<path fill="none" stroke="black" d="M356.06,-201.579C362.05,-192.914 368.392,-183.481 374,-174.595 380.74,-163.915 387.752,-151.867 393.645,-141.434"/>
<polygon fill="black" stroke="black" points="396.876,-142.829 398.703,-132.393 390.766,-139.412 396.876,-142.829"/>
<text text-anchor="middle" x="388.5" y="-163.395" font-family="Times,serif" font-size="14.00">id</text>
</g>
<!-- channel_name -->
<g id="node9" class="node"><title>channel_name</title>
<path fill="none" stroke="lightgrey" d="M567,-132.298C567,-132.298 481,-132.298 481,-132.298 475,-132.298 469,-126.298 469,-120.298 469,-120.298 469,-108.298 469,-108.298 469,-102.298 475,-96.2976 481,-96.2976 481,-96.2976 567,-96.2976 567,-96.2976 573,-96.2976 579,-102.298 579,-108.298 579,-108.298 579,-120.298 579,-120.298 579,-126.298 573,-132.298 567,-132.298"/>
<text text-anchor="middle" x="524" y="-110.598" font-family="Times,serif" font-size="14.00">"Channel Name"</text>
</g>
<!-- Channel&#45;&gt;channel_name -->
<g id="edge4" class="edge"><title>Channel-&gt;channel_name</title>
<path fill="none" stroke="black" d="M367.147,-212.648C401.031,-191.618 452.784,-159.498 487.475,-137.967"/>
<polygon fill="black" stroke="black" points="489.691,-140.711 496.342,-132.464 486,-134.763 489.691,-140.711"/>
<text text-anchor="middle" x="467.5" y="-163.395" font-family="Times,serif" font-size="14.00">name</text>
</g>
<!-- ROOT -->
<g id="node10" class="node"><title>ROOT</title>
<ellipse fill="none" stroke="black" cx="333" cy="-332.088" rx="34.394" ry="18"/>
<text text-anchor="middle" x="333" y="-328.388" font-family="Times,serif" font-size="14.00">ROOT</text>
</g>
<!-- ROOT&#45;&gt;Channel -->
<g id="edge7" class="edge"><title>ROOT-&gt;Channel</title>
<path fill="none" stroke="black" d="M333,-314.06C333,-305.953 333,-295.795 333,-285.51"/>
<polygon fill="black" stroke="black" points="336.5,-285.254 333,-275.254 329.5,-285.254 336.5,-285.254"/>
</g>
</g>
</svg>