<?xml version="1.0" encoding="utf-8"?>
<!-- Generator: Adobe Illustrator 21.1.0, SVG Export Plug-In . SVG Version: 6.00 Build 0)  -->
<svg version="1.1" id="Layer_1" xmlns="http://www.w3.org/2000/svg" xmlns:xlink="http://www.w3.org/1999/xlink" x="0px" y="0px"
	 viewBox="0 0 600 215" style="enable-background:new 0 0 600 215;" xml:space="preserve">
<style type="text/css">
	.st0{fill:url(#SVGID_4_);}
	.st1{fill:none;}
	.st2{fill:url(#SVGID_5_);}
	.st3{fill:url(#SVGID_6_);}
	.st4{fill:url(#SVGID_7_);}
	.st5{fill:url(#SVGID_8_);}
	.st6{fill:#EB6852;}
	.st7{clip-path:url(#SVGID_9_);fill:#FFB359;}
	.st8{fill:#0C316D;}
	.st9{fill:#0076A9;}
	.st10{fill:url(#SVGID_11_);}
	.st11{fill:#6B478E;}
	.st12{clip-path:url(#SVGID_13_);fill:#4597CB;}
	.st13{fill:none;stroke:#000000;stroke-width:15;stroke-miterlimit:10;}
	.st14{fill:none;stroke:#FFFFFF;stroke-width:15;stroke-miterlimit:10;}
	.st15{fill:#FFFFFF;}
	.st16{fill:none;stroke:#000000;stroke-width:9;stroke-miterlimit:10;}
	.st17{fill:none;stroke:#FFFFFF;stroke-width:9;stroke-miterlimit:10;}
	.st18{fill:none;stroke:#000000;stroke-width:7;stroke-miterlimit:10;}
	.st19{fill:none;stroke:#FFFFFF;stroke-width:7;stroke-miterlimit:10;}
</style>
<symbol  id="logo-color" viewBox="-120.3 -120.3 240.7 240.7">
	<linearGradient id="SVGID_4_" gradientUnits="userSpaceOnUse" x1="-113.0872" y1="-36.2602" x2="116.1555" y2="37.244">
		<stop  offset="0" style="stop-color:#FF0264"/>
		<stop  offset="0.4083" style="stop-color:#FE624E"/>
		<stop  offset="0.8165" style="stop-color:#FDBC39"/>
		<stop  offset="1" style="stop-color:#FDDF31"/>
	</linearGradient>
	<circle class="st0" cx="0" cy="0" r="120.3"/>
	<circle class="st1" cx="0" cy="0" r="120.3"/>
	<linearGradient id="SVGID_5_" gradientUnits="userSpaceOnUse" x1="-80.5154" y1="-13.2093" x2="120.0378" y2="-13.2093">
		<stop  offset="0" style="stop-color:#140A3B"/>
		<stop  offset="0.6804" style="stop-color:#064E91"/>
		<stop  offset="1" style="stop-color:#006AB4"/>
	</linearGradient>
	<path class="st2" d="M118.5,20.7C95.7,29.6,4.5,65.1,0.9,66.3c-2.4,0.8-15,6.6-26.9,2c-27.5-10.7-26.6-68-35.8-76.2l-18.8-16.5
		l79.1-70.4c0,0,74.5-22.9,121.5,103.2C119.7,12.6,119.3,16.7,118.5,20.7z"/>
	<linearGradient id="SVGID_6_" gradientUnits="userSpaceOnUse" x1="-25.8175" y1="-48.1316" x2="228.0246" y2="-48.1316">
		<stop  offset="0" style="stop-color:#349FD3"/>
		<stop  offset="0.3517" style="stop-color:#218ABE"/>
		<stop  offset="1" style="stop-color:#00679B"/>
	</linearGradient>
	<path class="st3" d="M118.6,20.6c-20.8,8.9-29.9-2-32.1-5.2C86.2,15,86,14.7,86,14.7c-4.7-7.5-8.5-18.4-10.8-32.6L74.4-23
		c-1.6-9.6-3.8-17.8-6.6-24.3c-3.8-9.2-8.6-15.2-13.9-18c-2.3-1.2-4.9-1.8-7.4-1.7c-7.3,0.2-15.1,5.9-22.6,17.7
		C19-41.7,14.6-36.1,9.6-33.4c-18.4,9.8-36.1-12.7-36.1-46.5c0-12.4,2.5-26.3,5.7-38.6c6.8-1.2,13.7-1.8,20.8-1.8
		c66.5,0,120.3,53.9,120.3,120.3C120.3,7,119.7,13.9,118.6,20.6z"/>
	<g>
		<linearGradient id="SVGID_7_" gradientUnits="userSpaceOnUse" x1="6.1287" y1="-32.1981" x2="8.345" y2="-32.1981">
			<stop  offset="0" style="stop-color:#A34CB4"/>
			<stop  offset="9.192359e-02" style="stop-color:#954DB2"/>
			<stop  offset="0.7169" style="stop-color:#3C52A1"/>
			<stop  offset="1" style="stop-color:#19549B"/>
		</linearGradient>
		<path class="st4" d="M6.1-31.7l2.2-0.9C7.6-32.3,6.9-32,6.1-31.7z"/>
		<linearGradient id="SVGID_8_" gradientUnits="userSpaceOnUse" x1="-120.3369" y1="-49.925" x2="6.1287" y2="-49.925">
			<stop  offset="0" style="stop-color:#A34CB4"/>
			<stop  offset="9.192359e-02" style="stop-color:#954DB2"/>
			<stop  offset="0.7169" style="stop-color:#3C52A1"/>
			<stop  offset="1" style="stop-color:#19549B"/>
		</linearGradient>
		<path class="st5" d="M-120.3,0c0-60.2,44.2-110.1,102-118.9c-3.2,11.6-5.9,24.9-5.9,36.7c0,29.3,13.8,56,30.5,50.5l-125,50.8
			C-119.8,12.9-120.3,6.5-120.3,0z"/>
	</g>
</symbol>
<g>
	<path class="st15" d="M230.8,131.5v-39h8.5v2.3c0,0.9-0.1,2-0.2,3c2.6-3.9,6.5-6.2,11.2-6.2c5.5,0,9.3,2.6,11.2,6.9
		c2.6-4.2,6.9-6.9,12.4-6.9c7.6,0,13,5,13,14.6v25.3h-8.5v-24.9c0-4.7-2.8-7.9-7.2-7.9s-8.1,3.6-8.1,9.7v23.1h-8.5v-25
		c0-4.6-2.8-7.5-7-7.5c-4.3,0-8,3.3-8.2,9.1v23.5H230.8z"/>
	<path class="st15" d="M331.4,131.5c-5,0-7.5-2.8-8.7-6.9c-2.5,3.8-7.3,7.7-15,7.7c-8.8,0-13.3-5.6-13.3-11.5
		c0-7,5.7-12.9,17.5-12.9c4.2,0,7.9,0.8,9.9,1.2v-2c0-4.9-3.5-8.2-8.8-8.2c-3.5,0-6.9,1.7-8.8,4.6L298,99c0,0,4.5-7.7,15.4-7.7
		c10.5,0,16.9,6.4,16.9,15.7v14.3c0,1.4,0.9,2.3,2.4,2.3h1.2v7.9H331.4z M321.8,115c-1.9-0.4-5.3-1-8.4-1c-6.1,0-10.1,2.6-10.1,6.4
		c0,2.7,2.1,5,6.4,5C316.7,125.3,320.9,120.1,321.8,115z"/>
	<path class="st15" d="M377.5,131.5h-8.6v-22.2c0-6.9-4-10.5-9-10.5c-5.5,0-9.8,4.2-9.9,10.2v22.6h-8.5v-39h8.5v2.6
		c0,0.9-0.1,2.1-0.2,3.2c2.7-3.9,7.1-6.8,12.6-6.8c8.9,0,15.1,6.2,15.1,17.4V131.5z"/>
	<path class="st15" d="M391.5,75.3c3.4,0,6.2,2.8,6.2,6.1c0,3.4-2.8,6.2-6.2,6.2c-3.3,0-6.1-2.8-6.1-6.2
		C385.4,78.1,388.2,75.3,391.5,75.3z M387.1,131.5v-39h8.8v39H387.1z"/>
	<path class="st15" d="M418.5,100.1v31.4h-8.8v-31.4h-6v-7.6h6V83c0-8.9,5.9-14.5,13.6-14.5c3.8,0,6.7,1.2,8.8,3.2l-4,6.5
		c-1.1-1.3-2.6-1.9-4.2-1.9c-3.3,0-5.5,2.4-5.5,7v9.2h8.9v7.6H418.5z"/>
	<path class="st15" d="M431.2,111.9c0-11.4,8.8-20.3,20.1-20.3c11.2,0,20.1,8.9,20.1,20.3c0,11.5-8.9,20.4-20.1,20.4
		C440,132.3,431.2,123.4,431.2,111.9z M462.8,111.9c0-7.4-4.6-12.7-11.6-12.7c-7,0-11.7,5.5-11.7,12.7c0,7.4,4.9,12.8,11.7,12.8
		C458.2,124.7,462.8,119.4,462.8,111.9z"/>
	<path class="st15" d="M478.3,131.5v-62h8.8v62H478.3z"/>
	<path class="st15" d="M523.5,131.5c0-2.6,0.1-4.5,0.2-5.7c-3,4.1-7.4,6.5-12.4,6.5c-10.4,0-17.3-8.8-17.3-20.5
		c0-11.6,7-20.2,17.4-20.2c4.8,0,9.1,1.9,12.1,5.7c-0.1-0.5-0.2-1-0.2-1.5V69.5h8.5v62H523.5z M523.3,112c0-7.6-3.9-12.7-10.2-12.7
		c-6.2,0-10.6,5.2-10.6,12.6c0,7.4,4.5,12.9,10.6,12.9C519.4,124.8,523.3,119.3,523.3,112z"/>
</g>
<use xlink:href="#logo-color"  width="240.7" height="240.7" x="-120.3" y="-120.3" transform="matrix(0.5111 0 0 -0.5111 122.5604 107.5)" style="overflow:visible;"/>
</svg>
